/vscmnt/brussel_pixiu_data/_data_brussel/112/vsc11236/PredSimResults/SUBJ09mtu3D/worker6.mot
version=1
nRows=11
nColumns=50
inDegrees=yes
endheader
                time	         pelvis_tilt	         pelvis_list	     pelvis_rotation	           pelvis_tx	           pelvis_ty	           pelvis_tz	       hip_flexion_r	     hip_adduction_r	      hip_rotation_r	        knee_angle_r	       ankle_angle_r	         mtp_angle_r	       hip_flexion_l	     hip_adduction_l	      hip_rotation_l	        knee_angle_l	       ankle_angle_l	         mtp_angle_l	    lumbar_extension	      lumbar_bending	     lumbar_rotation	 ercspn_r/activation	 intobl_r/activation	 extobl_r/activation	    abd_r/activation	    add_r/activation	hamstrings_r/activation	bifemsh_r/activation	glut_max_r/activation	iliopsoas_r/activation	rect_fem_r/activation	  vasti_r/activation	gastroc_r/activation	 soleus_r/activation	tib_ant_r/activation	 ercspn_l/activation	 intobl_l/activation	 extobl_l/activation	    abd_l/activation	    add_l/activation	hamstrings_l/activation	bifemsh_l/activation	glut_max_l/activation	iliopsoas_l/activation	rect_fem_l/activation	  vasti_l/activation	gastroc_l/activation	 soleus_l/activation	tib_ant_l/activation	
          0.62829406	         -4.24632545	          0.85615056	         -8.29731735	          0.77908463	          0.98860953	          0.00330698	        -14.35117496	         -2.45132988	         -4.62330642	         -9.71166309	          3.64522944	         36.85646395	         29.03359256	         -1.83272594	         -8.87119886	         -6.34948112	          4.28313797	          0.24613861	        -13.55394721	          1.19828837	          6.79145786	          0.03276105	          0.01000037	          0.01000048	          0.02667605	          0.01209465	          0.01480493	          0.17680118	          0.01152324	          0.01210590	          0.01000156	          0.01000063	          0.31005477	          0.21395029	          0.01252238	          0.02941228	          0.15643866	          0.03009251	          0.01000809	          0.21901314	          0.06799365	          0.13545024	          0.08939892	          0.13479616	          0.01116144	          0.01000046	          0.01462811	          0.01000038	          0.32533183	
          0.64085994	         -4.27353705	          0.98205828	         -8.30453863	          0.79922092	          0.98637986	          0.00259965	        -15.02059670	         -2.80583954	         -5.04809061	        -10.42269252	          2.46829105	         38.44703972	         28.98388180	         -1.66930569	         -9.01676527	         -8.23593846	          3.87595068	          0.20891088	        -13.04066947	          0.74741889	          7.00333459	          0.02708875	          0.01000026	          0.01000122	          0.02205670	          0.01000185	          0.01226740	          0.14618619	          0.01000081	          0.01001162	          0.01000093	          0.01000116	          0.28160343	          0.19153679	          0.01035396	          0.02431940	          0.12934898	          0.02488156	          0.07384395	          0.18539282	          0.06742702	          0.11199519	          0.12864973	          0.11145418	          0.01000039	          0.01000049	          0.01209685	          0.01209447	          0.36464496	
          0.65342582	         -4.28298768	          1.11712709	         -8.27796235	          0.81959895	          0.98448292	          0.00180940	        -15.48733717	         -3.19020882	         -5.49386007	        -11.53114777	          1.17324755	         39.96320239	         28.84129580	         -1.49046508	         -9.15096059	        -10.00045648	          3.32840860	          0.20153044	        -12.51640926	          0.28633067	          7.18384048	          0.03585985	          0.01000010	          0.01000027	          0.01823726	          0.01000049	          0.01014350	          0.12087233	          0.01000017	          0.03200874	          0.01000140	          0.01000069	          0.23330047	          0.15987193	          0.01000005	          0.02349983	          0.10695027	          0.02057297	          0.12853958	          0.20667641	          0.05575137	          0.09260169	          0.16870637	          0.09215423	          0.01000037	          0.01000040	          0.01000222	          0.01000021	          0.40879214	
          0.66599170	         -4.27581046	          1.25112610	         -8.21827892	          0.83987648	          0.98311576	          0.00092283	        -15.64074003	         -3.60305159	         -5.95216189	        -13.20112564	         -0.19055469	         41.23964430	         28.75461651	         -1.31041338	         -9.28092774	        -11.87631853	          2.78810242	          0.16741354	        -12.02245817	         -0.17360503	          7.33094134	          0.08863711	          0.01000032	          0.01000022	          0.01507921	          0.04064702	          0.01771810	          0.09994189	          0.01000024	          0.02647027	          0.01000090	          0.01000172	          0.19290101	          0.13218774	          0.01000006	          0.03483808	          0.08843023	          0.01701048	          0.17674087	          0.25530960	          0.05207069	          0.07656645	          0.17273171	          0.07619634	          0.01000053	          0.07309615	          0.01000094	          0.01000083	          0.42957899	
          0.67855758	         -4.25392929	          1.38258621	         -8.13289987	          0.85986108	          0.98240754	         -0.00004413	        -15.40396206	         -4.05149833	         -6.43402823	        -15.53830374	         -1.59158632	         42.07347457	         28.72350525	         -1.12792980	         -9.37384275	        -13.90143301	          2.57378000	          0.12794534	        -11.57575320	         -0.63073017	          7.44756590	          0.10074231	          0.01000040	          0.01000025	          0.01246802	          0.12353979	          0.02312374	          0.08263612	          0.01000009	          0.03700453	          0.01000038	          0.01000020	          0.15949729	          0.10929745	          0.01000014	          0.02880926	          0.07311722	          0.01406490	          0.20202620	          0.27543636	          0.04799033	          0.06330797	          0.18686941	          0.06300181	          0.01000048	          0.17117212	          0.01000111	          0.01000066	          0.43054012	
          0.69112346	         -4.22108793	          1.49805089	         -8.02026682	          0.87940264	          0.98248788	         -0.00105854	        -14.71595945	         -4.53077909	         -6.98846034	        -18.63365898	         -2.93439248	         42.06440823	         28.64414644	         -0.93999345	         -9.42706113	        -15.87274012	          2.70290887	          0.09373171	        -11.19039518	         -1.07195346	          7.52997429	          0.09904620	          0.01000049	          0.01000029	          0.01030901	          0.17543180	          0.02168945	          0.06832742	          0.01000007	          0.03059859	          0.01000034	          0.01000014	          0.13187793	          0.09037096	          0.01000007	          0.02382168	          0.06045589	          0.01162943	          0.20916408	          0.30221030	          0.04934927	          0.05234540	          0.18883396	          0.05209211	          0.01000039	          0.20546514	          0.01000076	          0.01000039	          0.40313430	
          0.70368934	         -4.17987915	          1.58207260	         -7.87712954	          0.89844844	          0.98336385	         -0.00208735	        -13.56880012	         -5.04235416	         -7.62378872	        -22.46282553	         -4.33585000	         41.15421128	         28.43981654	         -0.75316263	         -9.44974529	        -17.64217676	          3.14379291	          0.08053259	        -10.87019303	         -1.48217789	          7.57277976	          0.09025832	          0.01000020	          0.01000029	          0.01000003	          0.21957712	          0.03324955	          0.05926786	          0.01000005	          0.02530075	          0.01000024	          0.01000005	          0.10904128	          0.07472187	          0.01000074	          0.01969700	          0.04998706	          0.01000022	          0.20868007	          0.28910069	          0.05530289	          0.04328118	          0.18028386	          0.04307159	          0.01000039	          0.24426602	          0.01000106	          0.01000064	          0.35238915	
          0.71625523	         -4.13221734	          1.61820386	         -7.69992166	          0.91697956	          0.98497360	         -0.00309254	        -12.00143261	         -5.58292099	         -8.32877325	        -26.89946480	         -5.89612873	         39.25446561	         28.04469585	         -0.57335907	         -9.42403947	        -19.07196123	          3.80569841	          0.13439279	        -10.61556532	         -1.84620058	          7.57012158	          0.07462962	          0.01461349	          0.01000124	          0.01000005	          0.26293364	          0.03081985	          0.04900611	          0.01000009	          0.02091982	          0.01000017	          0.01000004	          0.09015915	          0.06178266	          0.04523850	          0.01628633	          0.04133106	          0.01000057	          0.21333149	          0.27627146	          0.05934922	          0.03578657	          0.17503667	          0.03561310	          0.01000023	          0.26725734	          0.01000095	          0.01000044	          0.29920822	
          0.72882111	         -4.07998173	          1.59663410	         -7.48816687	          0.93494956	          0.98719869	         -0.00403833	        -10.08235788	         -6.14217511	         -9.02396301	        -31.80000848	         -7.42012634	         36.00287129	         27.43554893	         -0.40705962	         -9.33104371	        -20.08704261	          4.52626021	          0.29724226	        -10.42995992	         -2.15507547	          7.51683511	          0.09672010	          0.05015758	          0.06083923	          0.01000007	          0.21740291	          0.02548304	          0.04052059	          0.01000016	          0.01729754	          0.01000055	          0.01000008	          0.07454674	          0.05108406	          0.13336202	          0.01346632	          0.03417399	          0.01000032	          0.19547050	          0.22843188	          0.05767383	          0.02958976	          0.14472750	          0.02944617	          0.01000027	          0.28189079	          0.01000056	          0.01000026	          0.24959199	
          0.74138699	         -4.02338160	          1.52436814	         -7.24063663	          0.95228871	          0.98986079	         -0.00493199	         -7.92000640	         -6.67590112	         -9.55031980	        -36.93361249	         -8.64703402	         31.36835849	         26.65632999	         -0.25536364	         -9.17253363	        -20.74358122	          5.23744346	          0.59162667	        -10.32254325	         -2.40830228	          7.40677153	          0.12257824	          0.07061163	          0.11426607	          0.01464635	          0.17975639	          0.02107035	          0.03922343	          0.01015835	          0.01430269	          0.01000072	          0.01000004	          0.06163787	          0.04223810	          0.20367008	          0.01113474	          0.02825627	          0.01000024	          0.16162457	          0.19320009	          0.05350117	          0.02446601	          0.11966713	          0.02434714	          0.01000033	          0.28475910	          0.01000056	          0.01000033	          0.20637268	
          0.75395287	         -3.96236464	          1.42859201	         -6.95139658	          0.96898139	          0.99279096	         -0.00573866	         -5.64563280	         -7.07759872	         -9.78985620	        -41.99036267	         -8.74194931	         26.69168275	         25.75994809	         -0.10525874	         -8.96687339	        -21.11935793	          5.88743404	          1.00197772	        -10.29336929	         -2.63352558	          7.23056025	          0.12342508	          0.07125867	          0.12889361	          0.01211016	          0.14862898	          0.01742177	          0.04308243	          0.01000020	          0.01182964	          0.01000183	          0.01000004	          0.05096437	          0.03492394	          0.20764586	          0.01000087	          0.02336330	          0.01000026	          0.13676486	          0.16800078	          0.05338679	          0.02022951	          0.09895576	          0.02013108	          0.01000036	          0.26798620	          0.01000054	          0.01000037	          0.17063708	
